<svg width="239" height="30" viewBox="0 0 239 30" fill="none" xmlns="http://www.w3.org/2000/svg">
<g clip-path="url(#clip0_465_5594)">
<path d="M238.829 5.61377V25.1438H235.565V5.61377H238.829Z" fill="#FF7557"/>
<path d="M226.695 14.486C227.55 14.486 228.257 14.207 228.815 13.649C229.373 13.091 229.652 12.4028 229.652 11.5844C229.652 10.766 229.373 10.0871 228.815 9.54767C228.257 9.00827 227.55 8.73857 226.695 8.73857H222.482V14.486H226.695ZM219.217 5.61377H226.695C227.885 5.61377 228.954 5.87417 229.903 6.39497C230.852 6.91577 231.596 7.63187 232.135 8.54327C232.674 9.43607 232.944 10.4498 232.944 11.5844C232.944 12.7376 232.674 13.7699 232.135 14.6813C231.596 15.5927 230.852 16.3088 229.903 16.8296C228.954 17.3504 227.885 17.6108 226.695 17.6108H222.482V25.1438H219.217V5.61377Z" fill="#FF7557"/>
<path d="M217.185 25.1438H213.642L212.136 21.2378H203.877L202.343 25.1438H198.883L206.667 5.61377H209.401L217.185 25.1438ZM210.992 18.3362L208.006 10.6358L204.993 18.3362H210.992Z" fill="#FF7557"/>
<path d="M184.462 11.2217C185.764 11.2217 186.954 11.5379 188.033 12.1703C189.112 12.7841 189.967 13.6397 190.6 14.7371C191.232 15.8159 191.548 17.0156 191.548 18.3362C191.548 19.6568 191.232 20.8565 190.6 21.9353C189.967 23.0141 189.112 23.8697 188.033 24.5021C186.954 25.1159 185.764 25.4228 184.462 25.4228C183.141 25.4228 181.941 25.1159 180.862 24.5021C179.784 23.8697 178.928 23.0141 178.296 21.9353C177.682 20.8565 177.375 19.6568 177.375 18.3362C177.375 17.0156 177.682 15.8159 178.296 14.7371C178.928 13.6397 179.784 12.7841 180.862 12.1703C181.96 11.5379 183.16 11.2217 184.462 11.2217ZM180.416 18.3362C180.416 19.0988 180.593 19.7963 180.946 20.4287C181.3 21.0425 181.783 21.5354 182.397 21.9074C183.029 22.2608 183.718 22.4375 184.462 22.4375C185.206 22.4375 185.884 22.2608 186.498 21.9074C187.112 21.5354 187.596 21.0425 187.949 20.4287C188.302 19.7963 188.479 19.0988 188.479 18.3362C188.479 17.5736 188.302 16.8761 187.949 16.2437C187.596 15.6113 187.112 15.1184 186.498 14.765C185.884 14.393 185.206 14.207 184.462 14.207C183.718 14.207 183.029 14.393 182.397 14.765C181.783 15.1184 181.3 15.6113 180.946 16.2437C180.593 16.8761 180.416 17.5736 180.416 18.3362Z" fill="#FDFDFC"/>
<path d="M174.794 11.5007V25.1438H171.697V11.5007H174.794ZM173.259 5.16736C173.799 5.16736 174.264 5.36266 174.654 5.75326C175.063 6.14386 175.268 6.60886 175.268 7.14826C175.268 7.70626 175.063 8.18056 174.654 8.57116C174.264 8.96176 173.799 9.15706 173.259 9.15706C172.72 9.15706 172.255 8.96176 171.864 8.57116C171.474 8.18056 171.278 7.70626 171.278 7.14826C171.278 6.60886 171.474 6.14386 171.864 5.75326C172.255 5.36266 172.72 5.16736 173.259 5.16736Z" fill="#FDFDFC"/>
<path d="M165.315 16.2995C164.999 15.6857 164.497 15.1835 163.809 14.7929C163.121 14.3837 162.386 14.1791 161.605 14.1791C160.823 14.1791 160.117 14.3651 159.484 14.7371C158.852 15.0905 158.35 15.5834 157.978 16.2158C157.624 16.8296 157.448 17.5271 157.448 18.3083C157.448 19.0895 157.624 19.7963 157.978 20.4287C158.35 21.0611 158.852 21.5633 159.484 21.9353C160.135 22.2887 160.842 22.4654 161.605 22.4654C162.367 22.4654 163.093 22.2701 163.781 21.8795C164.469 21.4889 164.981 20.9867 165.315 20.3729V16.2995ZM154.406 18.3083C154.406 17.0063 154.695 15.8159 155.271 14.7371C155.848 13.6583 156.638 12.8027 157.643 12.1703C158.647 11.5379 159.754 11.2217 160.963 11.2217C161.893 11.2217 162.767 11.4263 163.586 11.8355C164.404 12.2447 164.981 12.7655 165.315 13.3979V5.61377H168.412V25.1438H165.315V23.2466C164.981 23.879 164.404 24.3998 163.586 24.809C162.767 25.2182 161.893 25.4228 160.963 25.4228C159.754 25.4228 158.647 25.1066 157.643 24.4742C156.638 23.8418 155.848 22.9862 155.271 21.9074C154.695 20.8286 154.406 19.6289 154.406 18.3083Z" fill="#FDFDFC"/>
<path d="M148.684 23.3303C148.274 23.9627 147.698 24.4742 146.954 24.8648C146.21 25.2368 145.41 25.4228 144.554 25.4228C142.843 25.4228 141.485 24.8741 140.481 23.7767C139.477 22.6607 138.974 21.1634 138.974 19.2848V11.5007H142.071V18.7826C142.071 19.88 142.36 20.7449 142.936 21.3773C143.531 22.0097 144.322 22.3259 145.308 22.3259C145.996 22.3259 146.638 22.1585 147.233 21.8237C147.847 21.4889 148.33 21.0332 148.684 20.4566L148.711 11.5007H151.836V25.1438H148.684V23.3303Z" fill="#FDFDFC"/>
<path d="M135.092 25.3391C133.549 25.3391 132.302 24.8741 131.354 23.9441C130.424 22.9955 129.959 21.6935 129.959 20.0381V14.4581H127.336V11.5007H129.959V7.84583H133.056V11.5007H136.627V14.4581H133.056V19.8986C133.056 20.6798 133.288 21.3029 133.753 21.7679C134.237 22.2143 134.832 22.4375 135.539 22.4375C135.874 22.4375 136.227 22.3817 136.599 22.2701L136.766 25.0043C136.32 25.2275 135.762 25.3391 135.092 25.3391Z" fill="#FDFDFC"/>
<path d="M119.673 5.33484C120.919 5.33484 122.165 5.60454 123.412 6.14394C124.676 6.66474 125.644 7.32504 126.313 8.12484L124.416 10.6637C123.765 9.99414 122.984 9.46404 122.072 9.07344C121.18 8.68284 120.296 8.48754 119.422 8.48754C118.529 8.48754 117.794 8.69214 117.218 9.10134C116.66 9.51054 116.381 10.0406 116.381 10.6916C116.381 11.2496 116.557 11.7146 116.911 12.0866C117.283 12.4586 117.739 12.7562 118.278 12.9794C118.836 13.184 119.599 13.4258 120.566 13.7048C121.886 14.0768 122.956 14.4581 123.774 14.8487C124.611 15.2207 125.318 15.788 125.895 16.5506C126.49 17.2946 126.787 18.2804 126.787 19.508C126.787 20.5682 126.499 21.5541 125.923 22.4655C125.365 23.3583 124.555 24.0744 123.495 24.6138C122.435 25.1532 121.207 25.4228 119.812 25.4228C118.362 25.4228 116.929 25.1066 115.516 24.4742C114.102 23.8418 112.958 23.042 112.084 22.0748L114.177 19.6754C115.032 20.4938 115.906 21.1355 116.799 21.6005C117.692 22.0469 118.696 22.2701 119.812 22.2701C120.891 22.2701 121.765 22.019 122.435 21.5168C123.105 21.0146 123.439 20.3543 123.439 19.5359C123.439 18.9965 123.263 18.5594 122.909 18.2246C122.556 17.8712 122.11 17.5922 121.57 17.3876C121.031 17.183 120.287 16.9505 119.338 16.6901C118.018 16.3367 116.939 15.9833 116.102 15.6299C115.283 15.2579 114.577 14.6999 113.981 13.9559C113.386 13.1933 113.089 12.1889 113.089 10.9427C113.089 9.90114 113.368 8.95254 113.926 8.09694C114.502 7.24134 115.283 6.57174 116.269 6.08814C117.274 5.58594 118.408 5.33484 119.673 5.33484Z" fill="#FDFDFC"/>
<path d="M103.763 25.1438H100.666V5.61377H103.763V25.1438Z" fill="#FDFDFC"/>
<path d="M91.5516 25.4228C90.2682 25.4228 89.0871 25.1159 88.0083 24.5021C86.9295 23.8697 86.0739 23.0048 85.4415 21.9074C84.8091 20.81 84.4929 19.5917 84.4929 18.2525C84.4929 16.9505 84.7998 15.7694 85.4136 14.7092C86.046 13.6304 86.9016 12.7841 87.9804 12.1703C89.0592 11.5379 90.2403 11.2217 91.5237 11.2217C92.7327 11.2217 93.8394 11.51 94.8438 12.0866C95.8482 12.6632 96.6387 13.4444 97.2153 14.4302C97.7919 15.416 98.0802 16.5134 98.0802 17.7224C98.0802 18.0572 98.043 18.5036 97.9686 19.0616H87.5061C87.6735 20.1962 88.1199 21.089 88.8453 21.74C89.5893 22.391 90.5286 22.7165 91.6632 22.7165C92.4258 22.7165 93.1326 22.5584 93.7836 22.2422C94.4532 21.9074 94.9368 21.4796 95.2344 20.9588L97.6896 22.4654C97.1874 23.3954 96.3876 24.1208 95.2902 24.6416C94.2114 25.1624 92.9652 25.4228 91.5516 25.4228ZM94.9275 16.8296C94.8159 15.9554 94.4253 15.2393 93.7557 14.6813C93.0861 14.1233 92.2956 13.8443 91.3842 13.8443C90.3984 13.8443 89.5707 14.114 88.9011 14.6534C88.2501 15.1742 87.813 15.8996 87.5898 16.8296H94.9275Z" fill="#FDFDFC"/>
<path d="M71.9399 13.3979C72.2747 12.7655 72.8513 12.2447 73.6697 11.8355C74.5067 11.4263 75.3809 11.2217 76.2923 11.2217C77.5013 11.2217 78.608 11.5379 79.6124 12.1703C80.6168 12.8027 81.4073 13.6583 81.9839 14.7371C82.5605 15.8159 82.8488 17.0063 82.8488 18.3083C82.8488 19.6289 82.5605 20.8286 81.9839 21.9074C81.4073 22.9862 80.6168 23.8418 79.6124 24.4742C78.608 25.1066 77.5013 25.4228 76.2923 25.4228C75.3809 25.4228 74.5067 25.2182 73.6697 24.809C72.8513 24.3998 72.2747 23.879 71.9399 23.2466V25.1438H68.843V5.61377H71.9399V13.3979ZM71.9399 20.3729C72.2747 20.9867 72.7862 21.4889 73.4744 21.8795C74.1626 22.2701 74.888 22.4654 75.6506 22.4654C76.4132 22.4654 77.1107 22.2887 77.7431 21.9353C78.3941 21.5633 78.8963 21.0611 79.2497 20.4287C79.6217 19.7963 79.8077 19.0895 79.8077 18.3083C79.8077 17.5271 79.6217 16.8296 79.2497 16.2158C78.8963 15.5834 78.4034 15.0905 77.771 14.7371C77.1386 14.3651 76.4318 14.1791 75.6506 14.1791C74.8694 14.1791 74.1347 14.3837 73.4465 14.7929C72.7583 15.1835 72.2561 15.6857 71.9399 16.2995V20.3729Z" fill="#FDFDFC"/>
<path d="M65.5862 25.1438H62.4614V23.2466C62.1266 23.879 61.55 24.3998 60.7316 24.809C59.9132 25.2182 59.039 25.4228 58.109 25.4228C56.9 25.4228 55.7933 25.1066 54.7889 24.4742C53.7845 23.8418 52.994 22.9862 52.4174 21.9074C51.8408 20.8286 51.5525 19.6289 51.5525 18.3083C51.5525 17.0063 51.8408 15.8159 52.4174 14.7371C52.994 13.6583 53.7845 12.8027 54.7889 12.1703C55.7933 11.5379 56.9 11.2217 58.109 11.2217C59.039 11.2217 59.9132 11.4263 60.7316 11.8355C61.55 12.2447 62.1266 12.7655 62.4614 13.3979V11.5007H65.5862V25.1438ZM54.5936 18.3083C54.5936 19.0895 54.7703 19.7963 55.1237 20.4287C55.4957 21.0611 55.9979 21.5633 56.6303 21.9353C57.2813 22.2887 57.9881 22.4654 58.7507 22.4654C59.5133 22.4654 60.2387 22.2701 60.9269 21.8795C61.6151 21.4889 62.1266 20.9867 62.4614 20.3729V16.2995C62.1452 15.6857 61.643 15.1835 60.9548 14.7929C60.2666 14.3837 59.5319 14.1791 58.7507 14.1791C57.9695 14.1791 57.2627 14.3651 56.6303 14.7371C55.9979 15.0905 55.4957 15.5834 55.1237 16.2158C54.7703 16.8296 54.5936 17.5271 54.5936 18.3083Z" fill="#FDFDFC"/>
<path d="M41.0499 5.61377V22.019H50.3964V25.1438H37.7856V5.61377H41.0499Z" fill="#FDFDFC"/>
<mask id="mask0_465_5594" style="mask-type:luminance" maskUnits="userSpaceOnUse" x="0" y="0" width="31" height="30">
<path d="M30.0245 0H0V29.9383H30.0245V0Z" fill="white"/>
</mask>
<g mask="url(#mask0_465_5594)">
<path d="M26.2112 4.84192H3.57422V26.2875H26.2112V4.84192Z" fill="#FFD6CD"/>
<path fill-rule="evenodd" clip-rule="evenodd" d="M8.4444 8.42013H0V0H8.4444V8.42013ZM30.025 8.42017H21.5806V3.32022e-05H30.025V8.42017ZM0 29.9385H8.4444V21.5183H0V29.9385ZM30.025 29.9385H21.5806V21.5183H30.025V29.9385ZM2.81439 8.42028H5.62919V21.5183H2.81439V8.42028ZM27.2099 8.42028H24.3951V21.5183H27.2099V8.42028ZM8.44461 2.80693H21.5803V5.61364H8.44461V2.80693ZM21.5803 24.3246H8.44461V27.1313H21.5803V24.3246Z" fill="#FF7557"/>
</g>
</g>
<defs>
<clipPath id="clip0_465_5594">
<rect width="239" height="30" fill="white"/>
</clipPath>
</defs>
</svg>
